<?xml version="1.0" encoding="UTF-8" standalone="no"?>
<svg
   version="1.1"
   x="0px"
   y="0px"
   viewBox="0 0 90 90"
   enable-background="new 0 0 100 100"
   xml:space="preserve"
   id="svg59"
   sodipodi:docname="noun_board_1301665.svg"
   width="90"
   height="90"
   inkscape:version="1.1.1 (c3084ef, 2021-09-22)"
   xmlns:inkscape="http://www.inkscape.org/namespaces/inkscape"
   xmlns:sodipodi="http://sodipodi.sourceforge.net/DTD/sodipodi-0.dtd"
   xmlns="http://www.w3.org/2000/svg"
   xmlns:svg="http://www.w3.org/2000/svg"><defs
     id="defs63" /><sodipodi:namedview
     id="namedview61"
     pagecolor="#ffffff"
     bordercolor="#666666"
     borderopacity="1.0"
     inkscape:pageshadow="2"
     inkscape:pageopacity="0.0"
     inkscape:pagecheckerboard="0"
     showgrid="false"
     inkscape:zoom="5.944"
     inkscape:cx="26.329071"
     inkscape:cy="14.720727"
     inkscape:window-width="1312"
     inkscape:window-height="969"
     inkscape:window-x="0"
     inkscape:window-y="25"
     inkscape:window-maximized="0"
     inkscape:current-layer="svg59" /><path
     fill="#000000"
     d="M 85,0 H 5 C 2.239,0 0,2.239 0,5 v 80 c 0,2.761 2.239,5 5,5 h 80 c 2.761,0 5,-2.239 5,-5 V 5 C 90,2.239 87.761,0 85,0 Z M 42,79.995 c 0,1.657 -1.343,3 -3,3 H 10 c -1.657,0 -3,-1.343 -3,-3 V 63.953 c 0,-1.657 1.343,-3 3,-3 h 29 c 1.657,0 3,1.343 3,3 z m 0,-27 c 0,1.657 -1.343,3 -3,3 H 10 c -1.657,0 -3,-1.343 -3,-3 V 21.006 c 0,-1.657 1.343,-3 3,-3 h 29 c 1.657,0 3,1.343 3,3 z m 41,27.016 c 0,1.657 -1.343,3 -3,3 H 51 c -1.657,0 -3,-1.343 -3,-3 V 21.006 c 0,-1.657 1.343,-3 3,-3 h 29 c 1.657,0 3,1.343 3,3 z"
     id="path53"
     style="fill:#eb8521;fill-opacity:1" /></svg>
