<?xml version="1.0" encoding="UTF-8" standalone="no"?>
<svg
   viewBox="0 -0.5 555.0003 555.0003"
   shape-rendering="crispEdges"
   version="1.1"
   id="svg5"
   xml:space="preserve"
   width="256"
   height="256"
   xmlns="http://www.w3.org/2000/svg"
   xmlns:svg="http://www.w3.org/2000/svg"><defs
     id="defs5" /><metadata
     id="metadata1">Made with Pixels to Svg https://codepen.io/shshaw/pen/XbxvNj</metadata><g
     id="g881"
     transform="translate(6.241215,7.7376065)"><g
       id="g2"
       transform="translate(293.64236,77.744489)"><path
         style="fill:#ffffff"
         d="m 67.60082,206.50962 v -14.99287 h 15.01497 v -15.01497 h 14.99287 v -14.98455 h 15.00679 v -30.01172 h -270.00717 v 30 h 15.01498 v 15.02856 l 14.99286,-0.011 v 14.9981 h 14.86652 v 14.85938 z"
         id="path1" /><path
         style="fill:#ffffff"
         d="m -142.39236,-3.510114 v 15.015625 h 30.00781 V -3.486677 l 14.996096,-0.00391 0.0039,-30.019531 h -14.992196 v 15.015625 h -15 v 15.0044453 z"
         id="path2" /><path
         style="fill:#ffffff"
         d="M 97.606593,-3.4856016 V 11.530023 H 67.598783 V -3.4621646 l -14.996096,-0.00391 -0.0039,-30.0195304 h 14.992196 v 15.015625 h 15 v 15.0044447 z"
         id="path2-6" /></g><path
       style="fill:#010101;stroke:none"
       d="m -157.35057,-63.481941 v 15 h -15 v 45.0000029 h 15 V 11.518062 h 15 v 14.99999 h 15 v 15 h -15 v 15 h -15 v 30 h -15 v 74.999998 h 15 v 15 h 15 v 15 h 15 v 15 h 15 v 15 h 15.000001 v 90 h -15.000001 v 135 H 67.649424 v -135 H 52.649423 v -90 h 15.000001 v -15 h 15 v -15 h 14.999999 v -15 h 14.999997 v -15 h 15 V 86.518052 h -15 v -30 H 97.649423 v -15 H 82.649424 v -15 H 97.649423 V 11.518062 H 112.64942 V -3.4819381 h 15 V -48.481941 h -15 v -15 H 67.649424 v 15 H 52.649423 v 15 h -15 v 15.000003 h -15 V -3.4819381 H -67.350569 V -18.481938 h -15 v -15.000003 h -15 v -15 h -15.000001 v -15 h -45 m 60.000001,30 v 15.000003 h 15 v 14.9999999 h 15 V 11.518062 H 22.649423 V -3.4819381 h 15 V -18.481938 h 15 v -15.000003 h 15.000001 v 15.000003 h 15 V -3.4819381 H 97.649423 V 11.518062 H 82.649424 v 14.99999 h -15 v 15 h 15 v 15 h 14.999999 v 30 H 112.64942 V 161.51805 H 97.649423 v 15 H 82.649424 v 15 h -15 v 15 H -112.35057 v -15 h -15 v -15 h -15 v -15 h -15 V 86.518052 h 15 v -30 h 15 v -15 h 15 v -15 h -15 v -14.99999 h -15 V -3.4819381 h 15 V -18.481938 h 15 v -15.000003 z"
       id="path27"
       transform="translate(293.60951,77.744489)" /><g
       id="g34"
       transform="translate(-340.75245,-186.82047)"><path
         style="fill:#fdcd91;stroke:none"
         d="m 612.01139,486.18015 v 15 h 15 v 60 h 15 v 30 h 15 v 105 h 30 v -105 h -15 v -105 z"
         id="path34" /><path
         style="fill:#fdb159;stroke:none"
         d="m 582.01139,486.18015 v 30 h 15 v 75 h 15 v 105 h 45 v -105 h -15 v -30 h -15 v -60 h -15 v -15 z"
         id="path33" /><path
         style="fill:#eb8521;stroke:none"
         d="m 552.01139,486.18015 v 105 h -15 v 105 h 75 v -105 h -15 v -75 h -15 v -30 z"
         id="path32" /></g><g
       id="g36"
       transform="translate(293.64236,77.744489)"><path
         style="fill:#fdb159;stroke:none"
         d="m -67.383422,11.511928 v 29.999997 h 15 v 45 h 15 V 101.51192 H 7.6165774 v 15 h -15 v 15 H 52.616578 v -15 h -15 v -15 h -15 V 71.511925 h 15 v -15 H -7.3834226 v -30 H -22.383422 V 11.511928 Z"
         id="path30" /><path
         style="fill:#fdcd91;stroke:none"
         d="m 37.616578,-18.488072 v 14.9999996 h -15 V 11.511928 h -45 v 14.999997 h 14.9999994 v 30 H 37.616578 v 15 h 15 v 29.999995 h -15 v 15 h 15 v 15 H 112.61657 V 86.511925 H 97.616578 v -30 h -15 v -15 h -15 v -15 h 15 V 11.511928 h -15 V -3.4880724 h -15 V -18.488072 Z"
         id="path29" /><path
         style="fill:#eb8521;stroke:none"
         d="M -97.383422,-18.488072 V -3.4880724 H -112.38343 V 11.511928 h -15 v 14.999997 h 15 v 15 h -15 v 15 h -15 v 30 h -15 v 44.999995 h 120.000008 v -15 h -15 v -15 h 15 V 86.511925 h -15 v -45 h -15 V -3.4880724 h -15 V -18.488072 Z"
         id="path28" /></g><path
       style="fill:#010101;stroke:none"
       d="m -97.383425,71.516051 v 30.000009 h 30 V 71.516051 h -30 m 120,0 v 30.000009 h 30 V 71.516051 h -30 m -75,30.000009 v 15 h 15 v 15 h 30.0000002 v -15 h 15 v -15 H -52.383425 m -15,60 v 30 h 90 v -30 H 7.6165752 v 15 H -52.383425 v -15 z"
       id="path31"
       transform="translate(293.64236,77.744489)" /></g></svg>
